HIERARCHY
ROOT Hips
{
  OFFSET -125.086 92.215 135.881
  CHANNELS 6 Xposition Yposition Zposition Zrotation Xrotation Yrotation
  JOINT LeftUpLeg
  {
    OFFSET 8.64259 1.95398 -2.38835
    CHANNELS 3 Zrotation Xrotation Yrotation
    JOINT LeftLeg
    {
      OFFSET 43.7702 0 0
      CHANNELS 3 Zrotation Xrotation Yrotation
      JOINT LeftFoot
      {
        OFFSET 40.6238 0 0
        CHANNELS 3 Zrotation Xrotation Yrotation
        JOINT LeftToeBase
        {
          OFFSET 12.7242 0 0
          CHANNELS 3 Zrotation Xrotation Yrotation
          End Site
          {
            OFFSET 0 0 0
          }
        }
      }
    }
  }
  JOINT RightUpLeg
  {
    OFFSET -8.2249 1.95398 -2.59336
    CHANNELS 3 Zrotation Xrotation Yrotation
    JOINT RightLeg
    {
      OFFSET 43.5653 0 0
      CHANNELS 3 Zrotation Xrotation Yrotation
      JOINT RightFoot
      {
        OFFSET 40.6238 0 0
        CHANNELS 3 Zrotation Xrotation Yrotation
        JOINT RightToeBase
        {
          OFFSET 12.7242 0 0
          CHANNELS 3 Zrotation Xrotation Yrotation
          End Site
          {
            OFFSET 0 0 0
          }
        }
      }
    }
  }
  JOINT Spine
  {
    OFFSET 0.165834 0.87714 6.61349
    CHANNELS 3 Zrotation Xrotation Yrotation
    JOINT Spine1
    {
      OFFSET 7.38963 1.71661e-005 0
      CHANNELS 3 Zrotation Xrotation Yrotation
      JOINT Spine2
      {
        OFFSET 11.9445 1.14441e-005 0
        CHANNELS 3 Zrotation Xrotation Yrotation
        JOINT Spine3
        {
          OFFSET 14.7254 4.19617e-005 0
          CHANNELS 3 Zrotation Xrotation Yrotation
          JOINT Spine4
          {
            OFFSET 10.9679 0 0
            CHANNELS 3 Zrotation Xrotation Yrotation
            JOINT RightShoulder
            {
              OFFSET 2.46616 -1.6653 3.69651
              CHANNELS 3 Zrotation Xrotation Yrotation
              JOINT RightArm
              {
                OFFSET 13.0012 0 0
                CHANNELS 3 Zrotation Xrotation Yrotation
                JOINT RightForeArm
                {
                  OFFSET 28.7848 1.52588e-005 0
                  CHANNELS 3 Zrotation Xrotation Yrotation
                  JOINT RightHand
                  {
                    OFFSET 26.5688 1.52588e-005 0
                    CHANNELS 3 Zrotation Xrotation Yrotation
                    End Site
                    {
                      OFFSET 0 0 0
                    }
                  }
                }
              }
            }
            JOINT LeftShoulder
            {
              OFFSET 2.38034 -1.29275 -3.7523
              CHANNELS 3 Zrotation Xrotation Yrotation
              JOINT LeftArm
              {
                OFFSET 16.3182 6.10352e-005 0
                CHANNELS 3 Zrotation Xrotation Yrotation
                JOINT LeftForeArm
                {
                  OFFSET 27.0901 0 0
                  CHANNELS 3 Zrotation Xrotation Yrotation
                  JOINT LeftHand
                  {
                    OFFSET 24.5451 1.52588e-005 0
                    CHANNELS 3 Zrotation Xrotation Yrotation
                    End Site
                    {
                      OFFSET 0 0 0
                    }
                  }
                }
              }
            }
            JOINT Neck
            {
              OFFSET 5.0226 -0.0266342 0
              CHANNELS 3 Zrotation Xrotation Yrotation
              JOINT Head
              {
                OFFSET 6.69363 2.86102e-005 0
                CHANNELS 3 Zrotation Xrotation Yrotation
                End Site
                {
                  OFFSET 0 0 0
                }
              }
            }
          }
        }
      }
    }
  }
}
MOTION
Frames:	16
Frame Time:	0.0416667
260.401 88.966 255.066 -97.7863 60.3854 -81.3309 -178.512 6.83633 69.3908 84.1967 -9.10685 170.028 -1.17687 -16.1518 -9.75362 51.2375 -31.9279 -137.621 150.065 12.112 75.4543 -7.69909 -5.64355 42.2111 35.0274 -9.45449 46.9014 157.861 57.9773 55.0344 4.47014 5.99502 -88.6599 14.8814 9.50984 1.2968 3.24534 9.5576 0.873152 -19.5292 8.67739 4.11535 0.483465 8.67737 4.11534 139.972 -30.7037 -12.2407 43.8133 -30.3919 33.5757 -7.48175 -1.76189 -105.51 13.4393 15.1327 89.2714 -33.2232 -57.7255 156.416 43.3617 26.7703 -61.9099 12.7687 5.08266 -77.6918 6.06891 1.87926 21.856 -76.1309 -1.15656 -28.4432 38.8303 -19.1411 1.33448 
261.282 88.6243 255.991 -97.4557 60.4788 -81.9159 -178.959 5.99138 67.8243 -100.662 33.7384 12.7881 -179.017 42.3274 169.933 51.7096 -33.1275 -137.33 150.783 15.0518 76.6871 -14.592 -3.01786 39.4925 36.357 -8.55302 50.6805 165.768 54.4954 47.6332 4.46774 5.9964 -88.6244 14.8754 9.52264 1.36701 3.23934 9.57349 0.942733 -19.5343 8.66856 4.18602 0.478369 8.66854 4.18602 139.999 -30.7486 -12.2366 42.8878 -29.8891 31.9147 -26.6787 1.03152 -101.913 14.3739 40.4336 67.2364 -32.919 -57.8892 156.699 45.5605 26.3177 -61.5443 12.1018 3.89238 -78.7033 6.61176 1.87927 20.3255 -76.3851 -1.49883 -28.4337 39.1566 -19.5065 1.45145 
263.786 87.6471 258.623 -96.5122 60.7352 -83.5965 179.571 3.58351 63.4758 -102.497 41.3238 16.9279 -174.306 53.2826 171.047 53.349 -36.7501 -136.007 152.535 23.1655 82.4201 -28.9282 4.10015 28.1032 37.9622 -2.38411 60.4952 -179.469 39.9701 32.8642 4.46024 6.00185 -88.5221 14.8548 9.55861 1.56981 3.21888 9.61838 1.14373 -19.5519 8.64203 4.38981 0.460748 8.64204 4.38981 140.09 -30.8929 -12.2203 40.6253 -28.4714 27.4634 -42.2731 -0.77289 -89.0949 -124.131 22.6917 -30.4351 -32.0359 -58.355 157.522 52.1286 25.1772 -60.0297 9.87501 -0.281193 -82.3015 8.17235 1.87018 16.6492 -77.21 -2.6525 -28.4048 40.1934 -20.722 1.84428 
267.689 86.0727 262.707 -95.0307 61.1113 -86.2639 177.144 -0.615862 55.3035 -100.672 35.9469 22.4182 -172.31 54.951 175.455 57.2275 -43.1785 -132.12 155.554 30.0749 89.9347 -33.8476 15.2882 15.6445 32.558 5.03401 69.4372 -174.355 24.0327 25.5908 4.44725 6.01428 -88.3592 14.8141 9.61363 1.89424 3.17827 9.68761 1.4654 -19.5873 8.59724 4.71497 0.425348 8.59723 4.71496 140.259 -31.155 -12.184 37.9716 -26.3396 21.2001 3.66038 -7.18983 -81.9007 153.015 9.57131 -1.66627 -30.6004 -59.0829 158.857 63.0295 24.2068 -55.9592 5.39956 -7.36073 -88.9609 10.5844 1.83251 12.4477 -78.7905 -4.96414 -28.3746 42.1364 -23.1244 2.6136 
272.732 83.8409 267.917 -93.0849 61.5598 -89.8164 169.704 -15.2558 33.443 -94.4486 14.8253 49.9961 169.796 57.2594 -151.776 66.6697 -52.617 -121.846 161.635 35.6713 93.8077 -30.3324 26.0643 7.82088 24.0845 9.151 73.1371 -175.697 17.8794 23.9304 4.42782 6.03707 -88.1411 14.7467 9.68311 2.33063 3.1108 9.77618 1.89832 -19.6465 8.53275 5.15082 0.366146 8.53275 5.15081 140.523 -31.5551 -12.1191 35.6554 -23.7643 14.0448 -58.9217 -22.1623 -92.4956 140.537 -51.2574 -24.2837 -28.6151 -60.0328 160.699 76.7168 25.2655 -47.2083 -1.9379 -15.9262 -102.774 13.5613 1.75043 8.7279 -81.3152 -8.77453 -28.4308 45.1739 -27.0796 3.7948 
278.587 80.8556 273.838 -90.7437 62.0334 -94.1567 147.798 -29.8239 13.8093 -88.785 3.68292 82.9588 121.5 65.7291 -108.686 91.4848 -62.0395 -94.7081 171.696 39.9569 95.6561 -17.1508 35.0532 -3.87899 13.9471 12.1923 73.3433 -178.707 18.2718 24.6451 4.40095 6.07296 -87.8732 14.6469 9.76208 2.86979 3.01071 9.87881 2.43355 -19.7344 8.44668 5.68702 0.278252 8.4467 5.68701 140.899 -32.1117 -12.0169 33.9967 -21.0515 6.69312 -101.648 -25.0665 -111.94 63.0489 -60.8176 -91.7976 -26.0593 -61.1646 163.066 88.2004 29.3694 -32.6345 -11.2364 -21.8992 -123.179 16.7362 1.61994 5.76352 -84.8904 -14.2215 -28.7682 49.2589 -32.8269 5.30691 
284.816 77.1531 279.962 -88.0785 62.4897 -99.1757 137.06 -27.9125 9.33953 162.557 -5.22664 120.706 32.3489 -16.9991 26.1529 133.214 -59.4948 -48.1342 -173.501 39.2487 93.5575 11.4849 39.8473 -21.2066 1.56386 12.4416 68.6448 177.881 22.046 26.7939 4.3656 6.12348 -87.5612 14.5115 9.8453 3.50092 2.87465 9.98969 3.06053 -19.8534 8.33734 6.31156 0.159207 8.33736 6.31156 141.402 -32.841 -11.8682 32.9805 -18.4853 -0.383519 -114.188 -28.7008 -121.948 46.6622 -44.8289 -91.5951 -22.8928 -62.4361 165.992 92.6987 33.3211 -14.3231 -18.2763 -21.3376 -144.047 19.776 1.47502 3.61528 -89.5624 -21.1568 -29.6886 53.9726 -40.4303 7.01072 
291.241 72.6878 286.022 -85.175 62.8968 -104.722 131.531 -22.2505 11.5733 171.05 -10.5489 138.853 24.3913 -23.9924 11.2477 153.548 -42.2929 -19.1391 -154.064 42.9514 77.5119 10.6729 42.0365 -14.1794 3.52561 16.8477 58.9785 173.619 28.3774 30.6086 4.32122 6.18867 -87.2138 14.3412 9.92698 4.20737 2.70308 10.1023 3.76292 -20.0025 8.2043 7.00678 0.0101574 8.2043 7.00677 142.047 -33.7555 -11.663 32.402 -16.2492 -6.90671 -109.028 -41.1054 -122.517 45.2143 -30.7439 -70.8312 -19.0593 -63.8008 169.531 92.7606 33.78 2.55825 -20.6617 -16.7763 -159.244 22.5569 1.37489 2.25339 -95.3603 -29.0851 -31.5652 58.5559 -49.6842 8.81612 
298.633 66.8551 292.575 -82.1391 63.2358 -110.585 126.97 -16.0601 21.2261 177.916 -18.7586 173.502 16.3721 -40.4791 -9.09312 154.458 -22.8232 -4.94759 -130.633 43.6168 57.1407 5.53409 40.2225 -8.51874 6.76479 22.8144 50.5993 167.07 36.6653 37.0091 4.26839 6.26661 -86.8442 14.1409 10.0011 4.96293 2.50096 10.2096 4.51481 -20.1765 8.0498 7.74592 -0.163893 8.0498 7.74591 142.847 -34.8623 -11.3908 32.0101 -14.3973 -12.7629 -90.8878 -57.7101 -110.014 34.1208 -16.3902 -54.4606 -14.4875 -65.2065 173.75 92.5084 32.3247 15.2087 -20.3117 -12.3639 -169.274 25.0982 1.3412 1.48272 -101.69 -36.4224 -34.458 63.1594 -58.9897 10.6661 
305.953 61.4661 298.894 -79.0919 63.5055 -116.502 123.851 -9.39508 16.4128 178.046 -20.1358 174.313 11.6716 -46.2749 -13.9402 147.103 -7.61832 4.71151 -111.803 39.325 41.233 3.78981 35.5386 -6.49981 8.09044 26.816 44.2034 156.74 44.9491 46.9146 4.2087 6.35415 -86.4692 13.919 10.0627 5.73307 2.2766 10.3049 5.28195 -20.368 7.87936 8.49467 -0.355396 7.87938 8.49467 143.813 -36.1639 -11.0406 31.5944 -12.8944 -17.9406 -63.1852 -69.0137 -84.4804 16.9864 -7.07219 -49.0138 -9.09467 -66.5931 178.732 92.2931 31.276 24.6405 -20.5921 -10.0236 179.2 27.4147 1.36371 1.09343 -89.7672 -19.0136 -31.7098 27.9491 -65.1097 -41.8294 
313.097 56.9664 305.021 -76.1567 63.7243 -122.19 122.038 -2.72189 13.0345 178.165 -21.618 175.011 7.59518 -51.4355 -18.5029 136.995 2.0286 12.5829 -99.7595 34.1011 31.1328 2.96849 30.8261 -5.79369 8.08093 26.7848 40.6461 143.07 50.6743 59.6215 4.14531 6.44751 -86.1082 13.6856 10.1083 6.47814 2.04028 10.383 6.02483 -20.5685 7.70157 9.21445 -0.555883 7.70158 9.21444 144.958 -37.6596 -10.5989 31.0077 -11.6615 -22.474 -33.097 -73.7433 -54.2083 3.65838 -1.77938 -50.135 -2.80394 -67.8897 -175.447 91.2421 31.4581 32.4823 12.2371 -0.0467152 -90.2458 29.5073 1.42765 0.941889 12.9225 49.0102 -88.6564 40.9086 42.45 -76.5487 
320.045 53.3445 311.006 -73.4424 63.9232 -127.375 121.166 3.51421 10.7145 178.264 -23.2029 175.587 4.09291 -56.0528 -22.6315 127.231 7.40587 18.956 -92.2957 30.0279 25.0946 2.84973 28.4478 -5.9564 7.16851 22.0728 39.6481 129.434 52.9617 71.8875 4.08235 6.54279 -85.7809 13.4514 10.1368 7.15755 1.80298 10.4412 6.70288 -20.7697 7.5274 9.86657 -0.757066 7.52741 9.86657 146.299 -39.3487 -10.0479 30.154 -10.6057 -26.411 -7.15736 -74.7881 -27.2285 -5.34789 2.08017 -53.0435 4.42321 -69.0137 -168.743 88.7525 32.7022 39.8224 18.5278 14.6164 4.38798 31.3784 1.5217 0.941279 4.48358 48.7532 -83.003 40.4122 38.2414 -80.8526 
326.661 50.4658 316.745 -71.0278 64.135 -131.836 120.9 8.97929 9.09381 178.325 -24.9715 176.028 0.952858 -60.2311 -26.4409 119.077 10.2772 23.9523 -87.3164 27.205 21.3814 3.09118 28.2893 -6.48486 6.23037 14.6247 39.9628 118.893 52.9469 80.9249 4.02404 6.63655 -85.504 13.2259 10.149 7.73623 1.57443 10.4787 7.28105 -20.9648 7.36781 10.4182 -0.952146 7.36781 10.4182 147.864 -41.2366 -9.36163 28.9628 -9.64013 -29.7953 11.9838 -74.0856 -6.89147 -11.7019 5.2632 -56.0207 12.5439 -69.8727 -161.187 84.7248 34.3949 47.145 15.4266 19.6734 0.0244043 33.0337 1.63924 1.04546 6.7691 48.2888 -85.0082 39.792 40.8203 -80.2433 
332.745 48.2037 322.055 -68.9633 64.3842 -135.417 120.995 13.4411 7.95725 178.343 -27.0697 176.357 -2.05922 -64.0493 -30.1464 112.684 11.8824 27.9102 -73.5014 -12.8076 14.7231 -0.502341 53.6916 0.577354 8.20348 21.3441 35.6803 111.902 52.0174 86.4907 3.97335 6.72636 -85.2898 13.0162 10.1456 8.18909 1.36201 10.4951 7.73409 -21.1491 7.23081 10.8459 -1.13643 7.23082 10.8459 149.704 -43.3414 -8.49932 27.364 -8.69034 -32.655 18.5827 -73.5521 0.504855 -16.45 8.00321 -58.6787 21.3821 -70.3736 -152.944 79.5645 35.8573 54.4019 11.8628 25.1929 0.0196283 34.4778 1.77697 1.23166 8.27548 47.6791 -86.2131 38.5478 42.888 -79.6747 
338.069 46.475 326.725 -67.2849 64.6762 -138.022 121.27 16.7292 7.1828 178.292 -29.7164 176.553 -5.1388 -67.5698 -33.9433 107.784 12.9544 31.2538 -71.0653 -16.9891 13.7813 0.0711531 56.6228 -0.137199 7.39238 15.4678 36.6418 107.58 50.9452 89.5812 3.93128 6.8108 -85.1456 12.8268 10.1256 8.50101 1.17051 10.4887 8.04698 -21.3197 7.11972 11.1351 -1.30708 7.11972 11.1351 151.907 -45.7025 -7.39219 25.2636 -7.68647 -34.9989 17.7201 -73.6876 0.0339697 -20.1768 10.419 -60.9754 30.598 -70.4331 -144.334 74.1114 36.6096 61.0955 8.27304 30.5926 0.0143936 35.7106 1.93288 1.48799 9.33315 46.9516 -86.8936 36.873 44.5249 -79.1383 
342.398 45.2376 330.542 -66.0274 64.992 -139.594 121.584 18.7066 6.72673 178.134 -33.3094 176.602 -8.5164 -70.9097 -38.0911 104.02 13.9411 34.4372 -68.989 -21.2712 13.2136 0.163613 59.9043 -0.263011 7.08353 11.2927 37.2146 104.98 50.028 91.1973 3.89594 6.88921 -85.0746 12.6597 10.0844 8.66617 1.00204 10.4547 8.21402 -21.4756 7.03166 11.279 -1.46291 7.03168 11.279 154.639 -48.3937 -5.91377 22.5124 -6.55354 -36.8056 17.488 -73.4367 0.0336365 -23.2258 12.5863 -62.9654 39.7188 -69.989 -135.804 69.3504 36.5255 66.5221 4.99194 35.3792 0.00926376 36.7269 2.1049 1.80734 10.1509 46.1144 -87.2004 34.8997 45.778 -78.6602 
